<svg xmlns="http://www.w3.org/2000/svg" xmlns:xlink="http://www.w3.org/1999/xlink" contentStyleType="text/css" data-diagram-type="CLASS" height="1211px" preserveAspectRatio="none" style="width:896px;height:1211px;background:#FFFFFF;" version="1.1" viewBox="0 0 896 1211" width="896px" zoomAndPan="magnify"><?plantuml 1.2026.3beta6?><defs/><g><g class="title" data-source-line="4"><text fill="#000000" font-family="sans-serif" font-size="14" font-weight="700" lengthAdjust="spacing" textLength="148.1754" x="370.4317" y="22.9951">menu.h &#32467;&#26500;&#20307;&#20851;&#31995;&#22270;</text></g><!--class MSO--><g class="entity" data-qualified-name="MSO" data-source-line="7" id="ent0002"><rect fill="#F1F1F1" height="96.8906" rx="2.5" ry="2.5" style="stroke:#181818;stroke-width:0.5;" width="205.9487" x="675.09" y="1099.7169"/><ellipse cx="702.4446" cy="1115.7169" fill="#ADD1B2" rx="11" ry="11" style="stroke:#181818;stroke-width:1;"/><path d="M705.4133,1121.3575 Q704.8352,1121.6544 704.1946,1121.795 Q703.5539,1121.9512 702.8508,1121.9512 Q700.3508,1121.9512 699.0227,1120.3106 Q697.7102,1118.6544 697.7102,1115.5294 Q697.7102,1112.4044 699.0227,1110.7481 Q700.3508,1109.0919 702.8508,1109.0919 Q703.5539,1109.0919 704.1946,1109.2481 Q704.8508,1109.4044 705.4133,1109.7012 L705.4133,1112.42 Q704.7883,1111.8419 704.1946,1111.5762 Q703.6008,1111.295 702.9758,1111.295 Q701.6321,1111.295 700.9446,1112.3731 Q700.2571,1113.4356 700.2571,1115.5294 Q700.2571,1117.6231 700.9446,1118.7012 Q701.6321,1119.7637 702.9758,1119.7637 Q703.6008,1119.7637 704.1946,1119.4981 Q704.7883,1119.2169 705.4133,1118.6387 L705.4133,1121.3575 Z " fill="#000000"/><text fill="#000000" font-family="sans-serif" font-size="14" lengthAdjust="spacing" textLength="146.4941" x="719.19" y="1120.5636">menu_string_offset_t</text><line style="stroke:#181818;stroke-width:0.5;" x1="676.09" x2="880.0387" y1="1131.7169" y2="1131.7169"/><text fill="#000000" font-family="sans-serif" font-size="14" lengthAdjust="spacing" textLength="48.5215" x="681.09" y="1148.712">uint8_t</text><line style="stroke:#181818;stroke-width:1;" x1="676.09" x2="880.0387" y1="1156.0137" y2="1156.0137"/><text fill="#000000" font-family="sans-serif" font-size="14" lengthAdjust="spacing" textLength="125.9995" x="681.09" y="1173.0089">&#32034;&#24341;&#21040;&#20840;&#23616;&#23383;&#31526;&#20018;&#34920;</text><text fill="#000000" font-family="sans-serif" font-size="14" lengthAdjust="spacing" textLength="193.9487" x="681.09" y="1189.3057">0=&#31354;&#23383;&#31526;&#20018;, 1-255=&#23545;&#24212;&#32034;&#24341;</text></g><!--class CVI--><g class="entity" data-qualified-name="CVI" data-source-line="14" id="ent0003"><rect fill="#F1F1F1" height="80.5938" rx="2.5" ry="2.5" style="stroke:#181818;stroke-width:0.5;" width="183.2397" x="139.44" y="1107.8669"/><ellipse cx="181.714" cy="1123.8669" fill="#ADD1B2" rx="11" ry="11" style="stroke:#181818;stroke-width:1;"/><path d="M184.6827,1129.5075 Q184.1046,1129.8044 183.464,1129.945 Q182.8234,1130.1013 182.1202,1130.1013 Q179.6202,1130.1013 178.2921,1128.4606 Q176.9796,1126.8044 176.9796,1123.6794 Q176.9796,1120.5544 178.2921,1118.8981 Q179.6202,1117.2419 182.1202,1117.2419 Q182.8234,1117.2419 183.464,1117.3981 Q184.1202,1117.5544 184.6827,1117.8513 L184.6827,1120.57 Q184.0577,1119.9919 183.464,1119.7263 Q182.8702,1119.445 182.2452,1119.445 Q180.9015,1119.445 180.214,1120.5231 Q179.5265,1121.5856 179.5265,1123.6794 Q179.5265,1125.7731 180.214,1126.8513 Q180.9015,1127.9138 182.2452,1127.9138 Q182.8702,1127.9138 183.464,1127.6481 Q184.0577,1127.3669 184.6827,1126.7888 L184.6827,1129.5075 Z " fill="#000000"/><text fill="#000000" font-family="sans-serif" font-size="14" lengthAdjust="spacing" textLength="90.6309" x="201.7749" y="1128.7136">cur_val_idx_t</text><line style="stroke:#181818;stroke-width:0.5;" x1="140.44" x2="321.6797" y1="1139.8669" y2="1139.8669"/><text fill="#000000" font-family="sans-serif" font-size="14" lengthAdjust="spacing" textLength="48.5215" x="145.44" y="1156.862">uint8_t</text><line style="stroke:#181818;stroke-width:1;" x1="140.44" x2="321.6797" y1="1164.1638" y2="1164.1638"/><text fill="#000000" font-family="sans-serif" font-size="14" lengthAdjust="spacing" textLength="171.2397" x="145.44" y="1181.1589">&#32034;&#24341;&#21040;&#33756;&#21333;&#25968;&#25454;&#21306;(val_list)</text></g><!--class VTO--><g class="entity" data-qualified-name="VTO" data-source-line="20" id="ent0004"><rect fill="#F1F1F1" height="80.5938" rx="2.5" ry="2.5" style="stroke:#181818;stroke-width:0.5;" width="213.3726" x="327.37" y="769.6369"/><ellipse cx="370.7361" cy="785.6369" fill="#ADD1B2" rx="11" ry="11" style="stroke:#181818;stroke-width:1;"/><path d="M373.7048,791.2775 Q373.1267,791.5744 372.4861,791.715 Q371.8454,791.8712 371.1423,791.8712 Q368.6423,791.8712 367.3142,790.2306 Q366.0017,788.5744 366.0017,785.4494 Q366.0017,782.3244 367.3142,780.6681 Q368.6423,779.0119 371.1423,779.0119 Q371.8454,779.0119 372.4861,779.1681 Q373.1423,779.3244 373.7048,779.6212 L373.7048,782.34 Q373.0798,781.7619 372.4861,781.4962 Q371.8923,781.215 371.2673,781.215 Q369.9236,781.215 369.2361,782.2931 Q368.5486,783.3556 368.5486,785.4494 Q368.5486,787.5431 369.2361,788.6212 Q369.9236,789.6837 371.2673,789.6837 Q371.8923,789.6837 372.4861,789.4181 Q373.0798,789.1369 373.7048,788.5587 L373.7048,791.2775 Z " fill="#000000"/><text fill="#000000" font-family="sans-serif" font-size="14" lengthAdjust="spacing" textLength="118.3369" x="391.0396" y="790.4836">val_type_offset_t</text><line style="stroke:#181818;stroke-width:0.5;" x1="328.37" x2="539.7426" y1="801.6369" y2="801.6369"/><text fill="#000000" font-family="sans-serif" font-size="14" lengthAdjust="spacing" textLength="48.5215" x="333.37" y="818.632">uint8_t</text><line style="stroke:#181818;stroke-width:1;" x1="328.37" x2="539.7426" y1="825.9337" y2="825.9337"/><text fill="#000000" font-family="sans-serif" font-size="14" lengthAdjust="spacing" textLength="201.3726" x="333.37" y="842.9289">&#32034;&#24341;&#21040;&#20840;&#23616;&#38745;&#24577;val_type_xxx_t</text></g><!--class MII--><g class="entity" data-qualified-name="MII" data-source-line="26" id="ent0005"><rect fill="#F1F1F1" height="80.5938" rx="2.5" ry="2.5" style="stroke:#181818;stroke-width:0.5;" width="201.1158" x="499.5" y="423.2669"/><ellipse cx="536.9721" cy="439.2669" fill="#ADD1B2" rx="11" ry="11" style="stroke:#181818;stroke-width:1;"/><path d="M539.9409,444.9075 Q539.3627,445.2044 538.7221,445.345 Q538.0815,445.5012 537.3784,445.5012 Q534.8784,445.5012 533.5502,443.8606 Q532.2377,442.2044 532.2377,439.0794 Q532.2377,435.9544 533.5502,434.2981 Q534.8784,432.6419 537.3784,432.6419 Q538.0815,432.6419 538.7221,432.7981 Q539.3784,432.9544 539.9409,433.2512 L539.9409,435.97 Q539.3159,435.3919 538.7221,435.1262 Q538.1284,434.845 537.5034,434.845 Q536.1596,434.845 535.4721,435.9231 Q534.7846,436.9856 534.7846,439.0794 Q534.7846,441.1731 535.4721,442.2512 Q536.1596,443.3137 537.5034,443.3137 Q538.1284,443.3137 538.7221,443.0481 Q539.3159,442.7669 539.9409,442.1887 L539.9409,444.9075 Z " fill="#000000"/><text fill="#000000" font-family="sans-serif" font-size="14" lengthAdjust="spacing" textLength="119.1777" x="555.9659" y="444.1136">menu_item_idx_t</text><line style="stroke:#181818;stroke-width:0.5;" x1="500.5" x2="699.6158" y1="455.2669" y2="455.2669"/><text fill="#000000" font-family="sans-serif" font-size="14" lengthAdjust="spacing" textLength="48.5215" x="505.5" y="472.262">uint8_t</text><line style="stroke:#181818;stroke-width:1;" x1="500.5" x2="699.6158" y1="479.5637" y2="479.5637"/><text fill="#000000" font-family="sans-serif" font-size="14" lengthAdjust="spacing" textLength="189.1158" x="505.5" y="496.5589">&#32034;&#24341;&#21040;&#20840;&#23616;&#38745;&#24577;menu_item_t</text></g><!--class VTI32--><g class="entity" data-qualified-name="VTI32" data-source-line="33" id="ent0006"><rect fill="#F1F1F1" height="129.4844" rx="2.5" ry="2.5" style="stroke:#181818;stroke-width:0.5;" width="206.1201" x="7" y="910.2369"/><ellipse cx="48.7913" cy="926.2369" fill="#ADD1B2" rx="11" ry="11" style="stroke:#181818;stroke-width:1;"/><path d="M51.76,931.8775 Q51.1819,932.1744 50.5413,932.315 Q49.9006,932.4712 49.1975,932.4712 Q46.6975,932.4712 45.3694,930.8306 Q44.0569,929.1744 44.0569,926.0494 Q44.0569,922.9244 45.3694,921.2681 Q46.6975,919.6119 49.1975,919.6119 Q49.9006,919.6119 50.5413,919.7681 Q51.1975,919.9244 51.76,920.2212 L51.76,922.94 Q51.135,922.3619 50.5413,922.0962 Q49.9475,921.815 49.3225,921.815 Q47.9788,921.815 47.2913,922.8931 Q46.6038,923.9556 46.6038,926.0494 Q46.6038,928.1431 47.2913,929.2212 Q47.9788,930.2837 49.3225,930.2837 Q49.9475,930.2837 50.5413,930.0181 Q51.135,929.7369 51.76,929.1587 L51.76,931.8775 Z " fill="#000000"/><text fill="#000000" font-family="sans-serif" font-size="14" lengthAdjust="spacing" textLength="114.584" x="68.7449" y="931.0836">val_type_int32_t</text><line style="stroke:#181818;stroke-width:0.5;" x1="8" x2="212.1201" y1="942.2369" y2="942.2369"/><text fill="#000000" font-family="sans-serif" font-size="14" lengthAdjust="spacing" textLength="194.1201" x="13" y="959.232">+cur_val_idx : cur_val_idx_t</text><text fill="#000000" font-family="sans-serif" font-size="14" lengthAdjust="spacing" textLength="128.0576" x="13" y="975.5289">+min_val : int32_t</text><text fill="#000000" font-family="sans-serif" font-size="14" lengthAdjust="spacing" textLength="132.1592" x="13" y="991.8257">+max_val : int32_t</text><text fill="#000000" font-family="sans-serif" font-size="14" lengthAdjust="spacing" textLength="131.9404" x="13" y="1008.1226">+step_val : int32_t</text><line style="stroke:#181818;stroke-width:1;" x1="8" x2="212.1201" y1="1015.4244" y2="1015.4244"/><text fill="#000000" font-family="sans-serif" font-size="14" lengthAdjust="spacing" textLength="113.2234" x="13" y="1032.4195">val_list&#20013;&#21344;2&#23383;&#33410;</text></g><!--class VTI8--><g class="entity" data-qualified-name="VTI8" data-source-line="42" id="ent0007"><rect fill="#F1F1F1" height="129.4844" rx="2.5" ry="2.5" style="stroke:#181818;stroke-width:0.5;" width="206.1201" x="248" y="910.2369"/><ellipse cx="293.9717" cy="926.2369" fill="#ADD1B2" rx="11" ry="11" style="stroke:#181818;stroke-width:1;"/><path d="M296.9404,931.8775 Q296.3623,932.1744 295.7217,932.315 Q295.0811,932.4712 294.3779,932.4712 Q291.8779,932.4712 290.5498,930.8306 Q289.2373,929.1744 289.2373,926.0494 Q289.2373,922.9244 290.5498,921.2681 Q291.8779,919.6119 294.3779,919.6119 Q295.0811,919.6119 295.7217,919.7681 Q296.3779,919.9244 296.9404,920.2212 L296.9404,922.94 Q296.3154,922.3619 295.7217,922.0962 Q295.1279,921.815 294.5029,921.815 Q293.1592,921.815 292.4717,922.8931 Q291.7842,923.9556 291.7842,926.0494 Q291.7842,928.1431 292.4717,929.2212 Q293.1592,930.2837 294.5029,930.2837 Q295.1279,930.2837 295.7217,930.0181 Q296.3154,929.7369 296.9404,929.1587 L296.9404,931.8775 Z " fill="#000000"/><text fill="#000000" font-family="sans-serif" font-size="14" lengthAdjust="spacing" textLength="105.6768" x="314.4717" y="931.0836">val_type_int8_t</text><line style="stroke:#181818;stroke-width:0.5;" x1="249" x2="453.1201" y1="942.2369" y2="942.2369"/><text fill="#000000" font-family="sans-serif" font-size="14" lengthAdjust="spacing" textLength="194.1201" x="254" y="959.232">+cur_val_idx : cur_val_idx_t</text><text fill="#000000" font-family="sans-serif" font-size="14" lengthAdjust="spacing" textLength="119.1504" x="254" y="975.5289">+min_val : int8_t</text><text fill="#000000" font-family="sans-serif" font-size="14" lengthAdjust="spacing" textLength="123.252" x="254" y="991.8257">+max_val : int8_t</text><text fill="#000000" font-family="sans-serif" font-size="14" lengthAdjust="spacing" textLength="123.0332" x="254" y="1008.1226">+step_val : int8_t</text><line style="stroke:#181818;stroke-width:1;" x1="249" x2="453.1201" y1="1015.4244" y2="1015.4244"/><text fill="#000000" font-family="sans-serif" font-size="14" lengthAdjust="spacing" textLength="113.2234" x="254" y="1032.4195">val_list&#20013;&#21344;1&#23383;&#33410;</text></g><!--class VTS--><g class="entity" data-qualified-name="VTS" data-source-line="51" id="ent0008"><rect fill="#F1F1F1" height="129.4844" rx="2.5" ry="2.5" style="stroke:#181818;stroke-width:0.5;" width="236.7383" x="488.69" y="910.2369"/><ellipse cx="554.2808" cy="926.2369" fill="#ADD1B2" rx="11" ry="11" style="stroke:#181818;stroke-width:1;"/><path d="M557.2496,931.8775 Q556.6714,932.1744 556.0308,932.315 Q555.3902,932.4712 554.6871,932.4712 Q552.1871,932.4712 550.8589,930.8306 Q549.5464,929.1744 549.5464,926.0494 Q549.5464,922.9244 550.8589,921.2681 Q552.1871,919.6119 554.6871,919.6119 Q555.3902,919.6119 556.0308,919.7681 Q556.6871,919.9244 557.2496,920.2212 L557.2496,922.94 Q556.6246,922.3619 556.0308,922.0962 Q555.4371,921.815 554.8121,921.815 Q553.4683,921.815 552.7808,922.8931 Q552.0933,923.9556 552.0933,926.0494 Q552.0933,928.1431 552.7808,929.2212 Q553.4683,930.2837 554.8121,930.2837 Q555.4371,930.2837 556.0308,930.0181 Q556.6246,929.7369 557.2496,929.1587 L557.2496,931.8775 Z " fill="#000000"/><text fill="#000000" font-family="sans-serif" font-size="14" lengthAdjust="spacing" textLength="97.0566" x="574.7808" y="931.0836">val_type_str_t</text><line style="stroke:#181818;stroke-width:0.5;" x1="489.69" x2="724.4283" y1="942.2369" y2="942.2369"/><text fill="#000000" font-family="sans-serif" font-size="14" lengthAdjust="spacing" textLength="194.1201" x="494.69" y="959.232">+cur_val_idx : cur_val_idx_t</text><text fill="#000000" font-family="sans-serif" font-size="14" lengthAdjust="spacing" textLength="224.7383" x="494.69" y="975.5289">+first_str : menu_string_offset_t</text><text fill="#000000" font-family="sans-serif" font-size="14" lengthAdjust="spacing" textLength="130.0332" x="494.69" y="991.8257">+str_count : int8_t</text><line style="stroke:#181818;stroke-width:1;" x1="489.69" x2="724.4283" y1="999.1275" y2="999.1275"/><text fill="#000000" font-family="sans-serif" font-size="14" lengthAdjust="spacing" textLength="148.2574" x="494.69" y="1016.1226">&#23383;&#31526;&#20018;&#26522;&#20030;(&#21547;ON/OFF)</text><text fill="#000000" font-family="sans-serif" font-size="14" lengthAdjust="spacing" textLength="113.2234" x="494.69" y="1032.4195">val_list&#20013;&#21344;1&#23383;&#33410;</text></g><!--class MI--><g class="entity" data-qualified-name="MI" data-source-line="61" id="ent0009"><rect fill="#F1F1F1" height="145.7813" rx="2.5" ry="2.5" style="stroke:#181818;stroke-width:0.5;" width="223.5449" x="488.29" y="563.8569"/><ellipse cx="550.2544" cy="579.8569" fill="#ADD1B2" rx="11" ry="11" style="stroke:#181818;stroke-width:1;"/><path d="M553.2231,585.4975 Q552.645,585.7944 552.0044,585.935 Q551.3637,586.0913 550.6606,586.0913 Q548.1606,586.0913 546.8325,584.4506 Q545.52,582.7944 545.52,579.6694 Q545.52,576.5444 546.8325,574.8881 Q548.1606,573.2319 550.6606,573.2319 Q551.3637,573.2319 552.0044,573.3881 Q552.6606,573.5444 553.2231,573.8413 L553.2231,576.56 Q552.5981,575.9819 552.0044,575.7163 Q551.4106,575.435 550.7856,575.435 Q549.4419,575.435 548.7544,576.5131 Q548.0669,577.5756 548.0669,579.6694 Q548.0669,581.7631 548.7544,582.8413 Q549.4419,583.9038 550.7856,583.9038 Q551.4106,583.9038 552.0044,583.6381 Q552.5981,583.3569 553.2231,582.7788 L553.2231,585.4975 Z " fill="#000000"/><text fill="#000000" font-family="sans-serif" font-size="14" lengthAdjust="spacing" textLength="91.1162" x="570.7544" y="584.7036">menu_item_t</text><line style="stroke:#181818;stroke-width:0.5;" x1="489.29" x2="710.8349" y1="595.8569" y2="595.8569"/><text fill="#000000" font-family="sans-serif" font-size="14" lengthAdjust="spacing" textLength="105.1436" x="494.29" y="612.852">+type : uint8_t</text><text fill="#000000" font-family="sans-serif" font-size="14" lengthAdjust="spacing" textLength="211.5449" x="494.29" y="629.1489">+name : menu_string_offset_t</text><text fill="#000000" font-family="sans-serif" font-size="14" lengthAdjust="spacing" textLength="211.2578" x="494.29" y="645.4457">+val_offset : val_type_offset_t</text><line style="stroke:#181818;stroke-width:1;" x1="489.29" x2="710.8349" y1="652.7475" y2="652.7475"/><text fill="#000000" font-family="sans-serif" font-size="14" lengthAdjust="spacing" textLength="159.5642" x="494.29" y="669.7426">type&#20915;&#23450;val_offset&#25351;&#21521;:</text><text fill="#000000" font-family="sans-serif" font-size="14" lengthAdjust="spacing" textLength="197.8936" x="494.29" y="686.0395">BACK(0) / INT8(1) / INT32(2)</text><text fill="#000000" font-family="sans-serif" font-size="14" lengthAdjust="spacing" textLength="192.4727" x="494.29" y="702.3364">STRENUM(3) / SUBMENU(4)</text></g><!--class MD--><g class="entity" data-qualified-name="MD" data-source-line="72" id="ent0010"><rect fill="#F1F1F1" height="162.0781" rx="2.5" ry="2.5" style="stroke:#181818;stroke-width:0.5;" width="257.5742" x="471.27" y="201.1869"/><ellipse cx="554.8496" cy="217.1869" fill="#ADD1B2" rx="11" ry="11" style="stroke:#181818;stroke-width:1;"/><path d="M557.8183,222.8275 Q557.2402,223.1244 556.5996,223.265 Q555.959,223.4213 555.2558,223.4213 Q552.7558,223.4213 551.4277,221.7806 Q550.1152,220.1244 550.1152,216.9994 Q550.1152,213.8744 551.4277,212.2181 Q552.7558,210.5619 555.2558,210.5619 Q555.959,210.5619 556.5996,210.7181 Q557.2558,210.8744 557.8183,211.1713 L557.8183,213.89 Q557.1933,213.3119 556.5996,213.0463 Q556.0058,212.765 555.3808,212.765 Q554.0371,212.765 553.3496,213.8431 Q552.6621,214.9056 552.6621,216.9994 Q552.6621,219.0931 553.3496,220.1713 Q554.0371,221.2338 555.3808,221.2338 Q556.0058,221.2338 556.5996,220.9681 Q557.1933,220.6869 557.8183,220.1088 L557.8183,222.8275 Z " fill="#000000"/><text fill="#000000" font-family="sans-serif" font-size="14" lengthAdjust="spacing" textLength="81.915" x="575.3496" y="222.0336">menu_def_t</text><line style="stroke:#181818;stroke-width:0.5;" x1="472.27" x2="727.8442" y1="233.1869" y2="233.1869"/><text fill="#000000" font-family="sans-serif" font-size="14" lengthAdjust="spacing" textLength="211.5449" x="477.27" y="250.182">+name : menu_string_offset_t</text><text fill="#000000" font-family="sans-serif" font-size="14" lengthAdjust="spacing" textLength="141.8936" x="477.27" y="266.4789">+state_bits : uint8_t</text><text fill="#000000" font-family="sans-serif" font-size="14" lengthAdjust="spacing" textLength="115.3838" x="477.27" y="282.7757">+cur_idx : int8_t</text><text fill="#000000" font-family="sans-serif" font-size="14" lengthAdjust="spacing" textLength="163.5977" x="477.27" y="299.0726">+first_show_idx : int8_t</text><text fill="#000000" font-family="sans-serif" font-size="14" lengthAdjust="spacing" textLength="245.5742" x="477.27" y="315.3695">+first_item_idx : menu_item_idx_t*</text><text fill="#000000" font-family="sans-serif" font-size="14" lengthAdjust="spacing" textLength="207.457" x="477.27" y="331.6664">+parent_menu : menu_def_t*</text><text fill="#000000" font-family="sans-serif" font-size="14" lengthAdjust="spacing" textLength="104.4941" x="477.27" y="347.9632">+count : int8_t</text><line style="stroke:#181818;stroke-width:0.5;" x1="472.27" x2="727.8442" y1="355.265" y2="355.265"/></g><!--class MC--><g class="entity" data-qualified-name="MC" data-source-line="83" id="ent0011"><rect fill="#F1F1F1" height="96.8906" rx="2.5" ry="2.5" style="stroke:#181818;stroke-width:0.5;" width="201.6357" x="499.24" y="44.2969"/><ellipse cx="555.3289" cy="60.2969" fill="#ADD1B2" rx="11" ry="11" style="stroke:#181818;stroke-width:1;"/><path d="M558.2976,65.9375 Q557.7195,66.2344 557.0789,66.375 Q556.4382,66.5313 555.7351,66.5313 Q553.2351,66.5313 551.907,64.8906 Q550.5945,63.2344 550.5945,60.1094 Q550.5945,56.9844 551.907,55.3281 Q553.2351,53.6719 555.7351,53.6719 Q556.4382,53.6719 557.0789,53.8281 Q557.7351,53.9844 558.2976,54.2813 L558.2976,57 Q557.6726,56.4219 557.0789,56.1563 Q556.4851,55.875 555.8601,55.875 Q554.5164,55.875 553.8289,56.9531 Q553.1414,58.0156 553.1414,60.1094 Q553.1414,62.2031 553.8289,63.2813 Q554.5164,64.3438 555.8601,64.3438 Q556.4851,64.3438 557.0789,64.0781 Q557.6726,63.7969 558.2976,63.2188 L558.2976,65.9375 Z " fill="#000000"/><text fill="#000000" font-family="sans-serif" font-size="14" lengthAdjust="spacing" textLength="80.958" x="575.8289" y="65.1436">menu_ctx_t</text><line style="stroke:#181818;stroke-width:0.5;" x1="500.24" x2="699.8757" y1="76.2969" y2="76.2969"/><text fill="#000000" font-family="sans-serif" font-size="14" lengthAdjust="spacing" textLength="189.6357" x="505.24" y="93.292">+root_menu : menu_def_t*</text><text fill="#000000" font-family="sans-serif" font-size="14" lengthAdjust="spacing" textLength="183.5859" x="505.24" y="109.5889">+cur_menu : menu_def_t*</text><text fill="#000000" font-family="sans-serif" font-size="14" lengthAdjust="spacing" textLength="120.3125" x="505.24" y="125.8857">+val_list : int8_t*</text><line style="stroke:#181818;stroke-width:0.5;" x1="500.24" x2="699.8757" y1="133.1875" y2="133.1875"/></g><!--link VTI32 to CVI--><g class="link" data-entity-1="ent0006" data-entity-2="ent0003" data-link-type="dependency" data-source-line="92" id="lnk12"><path codeLine="92" d="M176.28,1039.9569 C176.28,1062.6069 176.28,1081.3669 176.28,1101.4769" fill="none" id="VTI32-to-CVI" style="stroke:#181818;stroke-width:1;"/><polygon fill="#181818" points="176.28,1107.4769,180.28,1098.4769,176.28,1102.4769,172.28,1098.4769,176.28,1107.4769" style="stroke:#181818;stroke-width:1;"/><text fill="#000000" font-family="sans-serif" font-size="13" lengthAdjust="spacing" textLength="72.5601" x="103.28" y="1069.7838">cur_val_idx</text></g><!--link VTI8 to CVI--><g class="link" data-entity-1="ent0007" data-entity-2="ent0003" data-link-type="dependency" data-source-line="93" id="lnk13"><path codeLine="93" d="M285.34,1039.9569 C285.34,1062.6069 285.34,1081.3669 285.34,1101.4769" fill="none" id="VTI8-to-CVI" style="stroke:#181818;stroke-width:1;"/><polygon fill="#181818" points="285.34,1107.4769,289.34,1098.4769,285.34,1102.4769,281.34,1098.4769,285.34,1107.4769" style="stroke:#181818;stroke-width:1;"/><text fill="#000000" font-family="sans-serif" font-size="13" lengthAdjust="spacing" textLength="72.5601" x="212.34" y="1069.7838">cur_val_idx</text></g><!--link VTS to CVI--><g class="link" data-entity-1="ent0008" data-entity-2="ent0003" data-link-type="dependency" data-source-line="94" id="lnk14"><path codeLine="94" d="M581.89,1040.1269 C581.89,1089.3869 581.89,1148.6069 581.89,1148.6069 C581.89,1148.6069 432.73,1148.6069 328.78,1148.6069" fill="none" id="VTS-to-CVI" style="stroke:#181818;stroke-width:1;"/><polygon fill="#181818" points="322.78,1148.6069,331.78,1152.6069,327.78,1148.6069,331.78,1144.6069,322.78,1148.6069" style="stroke:#181818;stroke-width:1;"/><text fill="#000000" font-family="sans-serif" font-size="13" lengthAdjust="spacing" textLength="72.5601" x="433.58" y="1144.6738">cur_val_idx</text></g><!--link VTS to MSO--><g class="link" data-entity-1="ent0008" data-entity-2="ent0002" data-link-type="dependency" data-source-line="97" id="lnk15"><path codeLine="97" d="M700.26,1039.9569 C700.26,1059.6269 700.26,1074.8969 700.26,1093.3269" fill="none" id="VTS-to-MSO" style="stroke:#181818;stroke-width:1;"/><polygon fill="#181818" points="700.26,1099.3269,704.26,1090.3269,700.26,1094.3269,696.26,1090.3269,700.26,1099.3269" style="stroke:#181818;stroke-width:1;"/><text fill="#000000" font-family="sans-serif" font-size="13" lengthAdjust="spacing" textLength="49.1182" x="650.26" y="1065.7038">first_str</text></g><!--link MI to MSO--><g class="link" data-entity-1="ent0009" data-entity-2="ent0002" data-link-type="dependency" data-source-line="100" id="lnk16"><path codeLine="100" d="M712.22,637.6069 C748.51,637.6069 779.58,637.6069 779.58,637.6069 C779.58,637.6069 779.58,966.2269 779.58,1093.6669" fill="none" id="MI-to-MSO" style="stroke:#181818;stroke-width:1;"/><polygon fill="#181818" points="779.58,1099.6669,783.58,1090.6669,779.58,1094.6669,775.58,1090.6669,779.58,1099.6669" style="stroke:#181818;stroke-width:1;"/><text fill="#000000" font-family="sans-serif" font-size="13" lengthAdjust="spacing" textLength="36.8672" x="742.58" y="831.0238">name</text></g><!--link MI to VTO--><g class="link" data-entity-1="ent0009" data-entity-2="ent0004" data-link-type="dependency" data-source-line="101" id="lnk17"><path codeLine="101" d="M514.52,709.9469 C514.52,730.2569 514.52,745.5669 514.52,763.2769" fill="none" id="MI-to-VTO" style="stroke:#181818;stroke-width:1;"/><polygon fill="#181818" points="514.52,769.2769,518.52,760.2769,514.52,764.2769,510.52,760.2769,514.52,769.2769" style="stroke:#181818;stroke-width:1;"/><text fill="#000000" font-family="sans-serif" font-size="13" lengthAdjust="spacing" textLength="62.7466" x="451.52" y="735.6838">val_offset</text></g><!--link VTO to VTI8--><g class="link" data-entity-1="ent0004" data-entity-2="ent0007" data-link-type="dependency" data-source-line="104" id="lnk18"><path codeLine="104" d="M390.75,850.7269 C390.75,868.5769 390.75,883.9669 390.75,903.9269" fill="none" id="VTO-to-VTI8" style="stroke:#181818;stroke-width:1;stroke-dasharray:7,7;"/><polygon fill="#181818" points="390.75,909.9269,394.75,900.9269,390.75,904.9269,386.75,900.9269,390.75,909.9269" style="stroke:#181818;stroke-width:1;"/><text fill="#000000" font-family="sans-serif" font-size="13" lengthAdjust="spacing" textLength="82.7036" x="307.75" y="876.3938">&#24403;type=INT8</text></g><!--link VTO to VTI32--><g class="link" data-entity-1="ent0004" data-entity-2="ent0006" data-link-type="dependency" data-source-line="105" id="lnk19"><path codeLine="105" d="M327.07,810.6069 C232.7,810.6069 110.06,810.6069 110.06,810.6069 C110.06,810.6069 110.06,858.0669 110.06,904.0069" fill="none" id="VTO-to-VTI32" style="stroke:#181818;stroke-width:1;stroke-dasharray:7,7;"/><polygon fill="#181818" points="110.06,910.0069,114.06,901.0069,110.06,905.0069,106.06,901.0069,110.06,910.0069" style="stroke:#181818;stroke-width:1;"/><text fill="#000000" font-family="sans-serif" font-size="13" lengthAdjust="spacing" textLength="90.9746" x="77.86" y="806.6738">&#24403;type=INT32</text></g><!--link VTO to VTS--><g class="link" data-entity-1="ent0004" data-entity-2="ent0008" data-link-type="dependency" data-source-line="106" id="lnk20"><path codeLine="106" d="M514.72,850.7269 C514.72,868.5769 514.72,883.9669 514.72,903.9269" fill="none" id="VTO-to-VTS" style="stroke:#181818;stroke-width:1;stroke-dasharray:7,7;"/><polygon fill="#181818" points="514.72,909.9269,518.72,900.9269,514.72,904.9269,510.72,900.9269,514.72,909.9269" style="stroke:#181818;stroke-width:1;"/><text fill="#000000" font-family="sans-serif" font-size="13" lengthAdjust="spacing" textLength="116.8286" x="397.72" y="876.3938">&#24403;type=STRENUM</text></g><!--link MD to MSO--><g class="link" data-entity-1="ent0010" data-entity-2="ent0002" data-link-type="dependency" data-source-line="109" id="lnk21"><path codeLine="109" d="M729.32,282.6069 C781.8,282.6069 830.31,282.6069 830.31,282.6069 C830.31,282.6069 830.31,910.7669 830.31,1093.4569" fill="none" id="MD-to-MSO" style="stroke:#181818;stroke-width:1;"/><polygon fill="#181818" points="830.31,1099.4569,834.31,1090.4569,830.31,1094.4569,826.31,1090.4569,830.31,1099.4569" style="stroke:#181818;stroke-width:1;"/><text fill="#000000" font-family="sans-serif" font-size="13" lengthAdjust="spacing" textLength="36.8672" x="793.31" y="636.6038">name</text></g><!--link MD to MII--><g class="link" data-entity-1="ent0010" data-entity-2="ent0005" data-link-type="dependency" data-source-line="110" id="lnk22"><path codeLine="110" d="M600.06,363.6069 C600.06,384.1369 600.06,399.2969 600.06,416.8469" fill="none" id="MD-to-MII" style="stroke:#181818;stroke-width:1;"/><polygon fill="#181818" points="600.06,422.8469,604.06,413.8469,600.06,417.8469,596.06,413.8469,600.06,422.8469" style="stroke:#181818;stroke-width:1;"/><text fill="#000000" font-family="sans-serif" font-size="13" lengthAdjust="spacing" textLength="134.1514" x="465.06" y="389.2938">first_item_idx[count]</text></g><!--link MD to MD--><g class="link" data-entity-1="ent0010" data-entity-2="ent0010" data-link-type="dependency" data-source-line="111" id="lnk23"><path codeLine="111" d="M485.26,200.9569 C485.26,184.2369 485.26,171.6069 485.26,171.6069 C485.26,171.6069 399.32,171.6069 399.32,171.6069 C399.32,171.6069 399.32,393.6069 399.32,393.6069 C399.32,393.6069 479.78,393.6069 479.78,393.6069 C479.78,393.6069 479.78,386.7469 479.78,369.7569" fill="none" id="MD-to-MD" style="stroke:#181818;stroke-width:1;"/><polygon fill="#181818" points="479.78,363.7569,475.78,372.7569,479.78,368.7569,483.78,372.7569,479.78,363.7569" style="stroke:#181818;stroke-width:1;"/><text fill="#000000" font-family="sans-serif" font-size="13" lengthAdjust="spacing" textLength="86.5376" x="297.813" y="256.1838">parent_menu</text><text fill="#000000" font-family="sans-serif" font-size="13" lengthAdjust="spacing" textLength="105.5235" x="288.32" y="271.3166">(&#33258;&#24341;&#29992;/&#26641;&#24418;&#32467;&#26500;)</text></g><!--link MII to MI--><g class="link" data-entity-1="ent0005" data-entity-2="ent0009" data-link-type="dependency" data-source-line="114" id="lnk24"><path codeLine="114" d="M600.06,504.1669 C600.06,521.8569 600.06,537.1669 600.06,557.4769" fill="none" id="MII-to-MI" style="stroke:#181818;stroke-width:1;stroke-dasharray:7,7;"/><polygon fill="#181818" points="600.06,563.4769,604.06,554.4769,600.06,558.4769,596.06,554.4769,600.06,563.4769" style="stroke:#181818;stroke-width:1;"/><text fill="#000000" font-family="sans-serif" font-size="13" lengthAdjust="spacing" textLength="39" x="560.06" y="529.8838">&#32034;&#24341;&#21040;</text></g><!--link MC to MD--><g class="link" data-entity-1="ent0011" data-entity-2="ent0010" data-link-type="dependency" data-source-line="117" id="lnk25"><path codeLine="117" d="M566.45,141.5369 C566.45,159.6269 566.45,174.6769 566.45,194.8869" fill="none" id="MC-to-MD" style="stroke:#181818;stroke-width:1;"/><polygon fill="#181818" points="566.45,200.8869,570.45,191.8869,566.45,195.8869,562.45,191.8869,566.45,200.8869" style="stroke:#181818;stroke-width:1;"/><text fill="#000000" font-family="sans-serif" font-size="13" lengthAdjust="spacing" textLength="69.9893" x="496.45" y="167.2738">root_menu</text></g><!--link MC to MD--><g class="link" data-entity-1="ent0011" data-entity-2="ent0010" data-link-type="dependency" data-source-line="118" id="lnk26"><path codeLine="118" d="M633.67,141.5369 C633.67,159.6269 633.67,174.6769 633.67,194.8869" fill="none" id="MC-to-MD-1" style="stroke:#181818;stroke-width:1;"/><polygon fill="#181818" points="633.67,200.8869,637.67,191.8869,633.67,195.8869,629.67,191.8869,633.67,200.8869" style="stroke:#181818;stroke-width:1;"/><text fill="#000000" font-family="sans-serif" font-size="13" lengthAdjust="spacing" textLength="64.3716" x="568.67" y="167.2738">cur_menu</text></g><!--link MC to CVI--><g class="link" data-entity-1="ent0011" data-entity-2="ent0003" data-link-type="dependency" data-source-line="119" id="lnk27"><path codeLine="119" d="M499.09,93.6069 C389.69,93.6069 230.56,93.6069 230.56,93.6069 C230.56,93.6069 230.56,907.6669 230.56,1101.4669" fill="none" id="MC-to-CVI" style="stroke:#181818;stroke-width:1;"/><polygon fill="#181818" points="230.56,1107.4669,234.56,1098.4669,230.56,1102.4669,226.56,1098.4669,230.56,1107.4669" style="stroke:#181818;stroke-width:1;"/><text fill="#000000" font-family="sans-serif" font-size="13" lengthAdjust="spacing" textLength="44.8652" x="171.6074" y="447.3338">val_list</text><text fill="#000000" font-family="sans-serif" font-size="13" lengthAdjust="spacing" textLength="72.96" x="157.56" y="462.4666">(int8_t&#25968;&#32452;)</text></g><?plantuml-src bLLRJnD157xVNp7nnIrOBgqaJPEIG95aOmg91LxKR4hPoiPsbtIdMZKcO42k3H108mW17WH5Rk93eHJ_p4uN_uKpEplJNTiYzg5fpvapv_lE-SuPuxcgZIMoYGn8fXE6qGLXLXtEGKLAwbfSVQs0Di7WHzAgfi1NOmhGit1K5mIemhG2CegMQna5LccbiZLfbbVGr9brLa8RLu9m5qJ81rYd9RGrZsOEq5A1cWGx7RX3WcK39zMUoNegPIXGXdT0mW2nU3zu8m2GKpKOaY7-vVVZB-ldBhfSGpCdQ6eVdOwZmu_MzozcySVrpZxsjaMihnVSTW-q-mCT7H5qV8ukLccay5PWgPEvhFmYaPRLaRoJCpeatPZpUl4pAgnLraugXIEqS26IwBHgG9_hLc8ZDVAo6Hgu3PlVcvygunFyXdmU0tDTRTTAXKh61JacIRU-k1fltygQWyOlQNzu1xqjudXmYc204vA20JjpiwkE80myLINkZAeH0tOvyROnaQyr6b0Pgx7QT5YXpU8XAcm7S8UlvzxLApgj0aCO-d-0eJhuGlNWXHgXQs-C3kkSWulV2bjApHgGn65dlL6XkB9oKizfi0OOduJArhfPl1BHqa5_Nsj_Rw_l9jHC5uxQDtUiZQCwGqk5v8YGah5tGzYbnMOjaL5kW4umqF_uKCtaC1h4YDwVeQFrwldAmZHQMWvZRtTNzA7OvWEjGEeR28djpgzWG0mGcl61Hm_w1cDYaDZZWzqn_4-yxwibYgytpsVh41rHKend3-Nv3rO6J4157bQXuIq6wIxjSzNcD7XKVzd0nUQTvQlEVnCvX1Upea6PkDW96w_j_4iLDPJDufnPdAzycAx3EWdvYebIrbbTRvW8CwllOIhZA9eygyT-AfpisCea0CpoBsjrtpiFpbBZmXNe3lBxE-t5xPaUmPx-Hgvu0uyB0PrL1mUV8pInQEsL-0taZGe3FgCatZKQm5gVf0G5F23LyqGzp4BU1QfyAY0F1AOfW1QFgTxDugorL-0BMo3XBIsTTDU50IglaC086GIt3rV9umm6NDwuo-SC2oTYzz7DewU6XsEH95u9fj37jloUyYCz-8HBhayqyNhw6sueBd1hPNiPbNVf0-Jprj7JU_SJHd8I2Z6IcZzuFDWMi1jxj0g3IzbZPIfcHYeG9ZUCboeOl_zMQTBt1m00?></g></svg>